# File created by Blade
# Date/Time:  Wed Jan 21 17:05:57 2015
# Frame Rate: 120.000 fps
#------------------------------------------------------
:FULLY-SPECIFIED
:DEGREES
280
root 19.393386 9.110273 -13.221828 -181.118305 4.223255 -179.113558
Spine 78.979210 4.329660 0.477224
Head -12.564201 0.235134 2.261727
LeftShoulder 21.491750 -61.205678 24.368176
LeftArm 53.116898 6.072833 -10.806805
LeftForeArm -0.089416 -0.000000 0.072601
LeftHand -5.143958 0.000000 18.946118
LeftHandThumb1 -26.253704 0.000000 33.147579
RightShoulder 10.441890 26.655404 -36.941931
RightArm 52.121678 36.772840 18.688702
RightForeArm -23.612749 -0.000000 10.304024
RightHand -10.170498 -0.000000 -15.901596
RightHandThumb1 -24.326973 -0.000000 -32.862282
LeftUpLeg -119.190583 29.743691 -7.849600
LeftLeg 146.943105 -0.000000 -0.000000
LeftFoot -47.339335 18.847063 -12.026646
LeftToeBase 24.956204 -0.000000 -0.000000
RightUpLeg -118.230774 -20.210243 9.562058
RightLeg 144.658036 -0.000000 -0.000000
RightFoot -47.391874 -23.792858 14.266677
RightToeBase 24.738078 -0.000000 -0.000000
281
root 19.391757 9.111889 -13.226174 -181.120267 4.241096 -179.119788
Spine 78.971640 4.326262 0.457427
Head -12.613349 0.240215 2.231683
LeftShoulder 21.382674 -61.193452 24.447775
LeftArm 53.107139 6.188063 -10.544698
LeftForeArm -0.194500 -0.000000 0.063738
LeftHand -5.212679 -0.000000 18.655458
LeftHandThumb1 -26.253704 0.000000 33.147579
RightShoulder 10.431473 26.653194 -36.945999
RightArm 52.089503 36.822009 18.653483
RightForeArm -23.593848 -0.000000 10.222541
RightHand -10.058622 -0.000000 -16.009024
RightHandThumb1 -24.326973 -0.000000 -32.862282
LeftUpLeg -119.170277 29.765410 -7.849122
LeftLeg 146.954329 -0.000000 -0.000000
LeftFoot -47.361574 18.802344 -12.059045
LeftToeBase 24.983851 -0.000000 -0.000000
RightUpLeg -118.193085 -20.190337 9.521992
RightLeg 144.653133 -0.000000 -0.000000
RightFoot -47.427904 -23.850213 14.288067
RightToeBase 24.930612 -0.000000 -0.000000
282
root 19.392513 9.097775 -13.233813 -181.091585 4.303950 -179.124368
Spine 78.875156 4.388319 0.444591
Head -12.597878 0.241793 2.251862
LeftShoulder 21.331549 -61.148913 24.479973
LeftArm 53.116494 5.993965 -10.751190
LeftForeArm 0.209887 -0.000000 -0.036748
LeftHand -5.262501 -0.000000 18.630141
LeftHandThumb1 -26.253704 0.000000 33.147579
RightShoulder 10.393743 26.537409 -36.901631
RightArm 52.080019 36.809402 18.500517
RightForeArm -23.496474 -0.000000 10.152123
RightHand -9.975337 0.000000 -16.090323
RightHandThumb1 -24.326973 -0.000000 -32.862282
LeftUpLeg -119.245937 29.836696 -7.862978
LeftLeg 147.011684 -0.000000 -0.000000
LeftFoot -47.400624 18.798661 -12.082956
LeftToeBase 24.993947 -0.000000 -0.000000
RightUpLeg -118.244378 -20.099713 9.503014
RightLeg 144.692477 -0.000000 -0.000000
RightFoot -47.439979 -23.865519 14.222935
RightToeBase 24.732523 -0.000000 -0.000000
283
root 19.390863 9.093141 -13.240048 -181.112885 4.308131 -179.113635
Spine 78.887714 4.373241 0.467220
Head -12.648163 0.229836 2.239154
LeftShoulder 21.280485 -61.135402 24.529357
LeftArm 53.109885 5.979900 -10.667243
LeftForeArm 0.172554 -0.000000 -0.093337
LeftHand -5.348758 -0.000000 18.903292
LeftHandThumb1 -26.253704 0.000000 33.147579
RightShoulder 10.393376 26.415724 -36.885730
RightArm 51.886761 36.828303 18.148102
RightForeArm -23.295143 0.000000 10.151329
RightHand -10.118568 -0.000000 -16.156574
RightHandThumb1 -24.326973 -0.000000 -32.862282
LeftUpLeg -119.228124 29.843588 -7.839420
LeftLeg 147.039753 -0.000000 -0.000000
LeftFoot -47.427040 18.802576 -12.088843
LeftToeBase 25.031795 -0.000000 -0.000000
RightUpLeg -118.212626 -20.102765 9.480371
RightLeg 144.712286 -0.000000 -0.000000
RightFoot -47.481503 -23.863332 14.257381
RightToeBase 24.751651 -0.000000 -0.000000
284
root 19.389990 9.086165 -13.247340 -181.132827 4.320311 -179.107357
Spine 78.894992 4.378183 0.482020
Head -12.689375 0.225956 2.254652
LeftShoulder 21.250005 -61.074440 24.564633
LeftArm 53.096943 5.989695 -10.424139
LeftForeArm 0.110194 -0.000000 -0.134242
LeftHand -5.294195 -0.000000 18.705390
LeftHandThumb1 -26.253704 0.000000 33.147579
RightShoulder 10.351627 26.411209 -36.871061
RightArm 51.842471 36.820419 18.068346
RightForeArm -23.342683 0.000000 10.111972
RightHand -10.105984 -0.000000 -16.313675
RightHandThumb1 -24.326973 -0.000000 -32.862282
LeftUpLeg -119.223435 29.867917 -7.821035
LeftLeg 147.081380 -0.000000 -0.000000
LeftFoot -47.449692 18.789147 -12.103521
LeftToeBase 25.016631 -0.000000 -0.000000
RightUpLeg -118.198474 -20.096171 9.448529
RightLeg 144.743656 -0.000000 -0.000000
RightFoot -47.490070 -23.847862 14.267266
RightToeBase 24.754007 -0.000000 -0.000000
285
root 19.389081 9.076765 -13.253987 -181.141224 4.312446 -179.106656
Spine 78.871982 4.349988 0.460899
Head -12.674093 0.247836 2.251200
LeftShoulder 21.228581 -61.084608 24.573616
LeftArm 53.068818 5.966544 -10.396599
LeftForeArm 0.253314 -0.000000 -0.223748
LeftHand -5.262949 -0.000000 18.735459
LeftHandThumb1 -26.253704 0.000000 33.147579
RightShoulder 10.313218 26.580574 -36.850982
RightArm 52.064304 36.839763 18.443584
RightForeArm -23.791109 -0.000000 10.028142
RightHand -10.070110 -0.000000 -16.412899
RightHandThumb1 -24.326973 -0.000000 -32.862282
LeftUpLeg -119.236862 29.867128 -7.808292
LeftLeg 147.122085 -0.000000 -0.000000
LeftFoot -47.453932 18.779051 -12.089004
LeftToeBase 24.966006 -0.000000 -0.000000
RightUpLeg -118.213424 -20.099622 9.419947
RightLeg 144.786144 -0.000000 -0.000000
RightFoot -47.503453 -23.817495 14.313425
RightToeBase 24.795979 -0.000000 -0.000000
